<svg width="26" height="26" viewBox="0 0 26 26" fill="none" xmlns="http://www.w3.org/2000/svg">
<path d="M23.744 10.906C19.919 10.906 16.8193 7.80633 16.8193 3.98133C16.8193 3.16533 16.9667 2.38333 17.2273 1.65233C15.3517 0.796659 13.2607 0.309326 11.0507 0.309326C6.96499 0.309326 3.26465 1.95266 0.567322 4.61599L11.419 14.51C11.725 14.7877 11.742 15.258 11.47 15.5583C11.4473 15.581 11.419 15.6037 11.3963 15.6207C14.7907 19.015 18.1907 22.415 21.585 25.8093C24.2257 23.1177 25.9767 19.304 25.9767 15.2353C25.9767 13.6657 25.7273 12.1527 25.274 10.7247C24.7867 10.8437 24.271 10.906 23.744 10.906Z" fill="white"/>
</svg>
